<svg xmlns="http://www.w3.org/2000/svg" width="1440" height="860" viewBox="0 0 1440 860" role="img" aria-labelledby="title desc">
  <title id="title">Name selection and export validation wireframe</title><desc id="desc">Two wireframes: the Etymaria name workspace with a shortlist and domain status, and the export release checklist.</desc>
  <style>.bg{fill:#101114}.panel{fill:#181a20;stroke:#535866;stroke-width:1.4}.soft{fill:#20232b;stroke:#535866;stroke-width:1.2}.accent{fill:#be4cff}.outline{fill:none;stroke:#be4cff;stroke-width:2}.text{fill:#f4f2f7;font-family:Arial,sans-serif}.muted{fill:#aaa7b2;font-family:Arial,sans-serif}.heading{font-size:20px;font-weight:bold}.body{font-size:14px}.small{font-size:12px}.label{font-size:10px;font-weight:bold;letter-spacing:1px}</style>
  <rect class="bg" width="1440" height="860"/>
  <text class="text heading" x="46" y="42">C. Name decision and export — the selected source of truth drives a validated kit</text>
  <rect class="panel" x="40" y="72" width="778" height="714" rx="14"/>
  <text class="muted label" x="72" y="108">NAME / DISCOVER</text><text class="text heading" x="72" y="139">Names with provenance, not a pile of words</text>
  <rect class="soft" x="72" y="164" width="440" height="42" rx="7"/><text class="muted body" x="92" y="191">Search candidates, roots, or meanings</text>
  <rect class="accent" x="531" y="164" width="112" height="42" rx="7"/><text class="text body" x="554" y="190">Generate</text>
  <rect class="soft" x="662" y="164" width="122" height="42" rx="7"/><text class="text small" x="686" y="190">Grid  ▾</text>
  <text class="muted label" x="72" y="246">12 CANDIDATES · DOMAIN CHECKS UPDATE ASYNCHRONOUSLY</text>
  <rect class="soft" x="72" y="268" width="220" height="198" rx="10"/><rect class="outline" x="72" y="268" width="220" height="198" rx="10"/>
  <text class="text heading" x="93" y="307">Lumenry</text><text class="muted small" x="93" y="332">LOO-men-ree · 3 syllables</text><text class="text small" x="93" y="365">Latin lumen “light” + -ry</text><text class="muted small" x="93" y="388">Meaning: clarity made useful</text><circle cx="101" cy="425" r="6" fill="#f0c56c"/><text class="text small" x="116" y="429">.com checking</text><text class="accent small" x="93" y="453">✓ Shortlisted</text>
  <rect class="soft" x="310" y="268" width="220" height="198" rx="10"/><text class="text heading" x="331" y="307">Verita</text><text class="muted small" x="331" y="332">veh-REE-ta · 3 syllables</text><text class="text small" x="331" y="365">Latin veritas “truth”</text><text class="muted small" x="331" y="388">Meaning: clear conviction</text><circle cx="339" cy="425" r="6" fill="#75d99a"/><text class="text small" x="354" y="429">.studio available</text><text class="muted small" x="331" y="453">Add to shortlist</text>
  <rect class="soft" x="548" y="268" width="220" height="198" rx="10"/><text class="text heading" x="569" y="307">Ordana</text><text class="muted small" x="569" y="332">or-DAH-na · 3 syllables</text><text class="text small" x="569" y="365">Latin ordo “order” + ana</text><text class="muted small" x="569" y="388">Meaning: harmonious order</text><circle cx="577" cy="425" r="6" fill="#75d99a"/><text class="text small" x="592" y="429">.co available</text><text class="muted small" x="569" y="453">Add to shortlist</text>
  <rect class="soft" x="72" y="486" width="696" height="123" rx="10"/><text class="muted label" x="94" y="516">SHORTLIST · 2 OF 6</text><text class="text body" x="94" y="551">Lumenry</text><text class="muted small" x="198" y="551">meaning fit 94 · pronunciation 88 · availability pending</text><line x1="94" y1="570" x2="742" y2="570" stroke="#535866"/><text class="text body" x="94" y="597">Verita</text><text class="muted small" x="198" y="597">meaning fit 89 · pronunciation 96 · .studio available</text>
  <rect class="soft" x="72" y="638" width="305" height="104" rx="9"/><text class="text body" x="94" y="670">Compare domain options</text><text class="muted small" x="94" y="695">RDAP results, timestamp, source</text><text class="accent small" x="94" y="725">Open comparison →</text>
  <rect class="accent" x="550" y="680" width="218" height="48" rx="8"/><text class="text body" x="583" y="710">Choose Lumenry →</text>
  <path d="M844 427h45" class="outline"/><path d="M880 417l18 10-18 10z" class="accent"/>
  <rect class="panel" x="922" y="72" width="478" height="714" rx="14"/>
  <text class="muted label" x="953" y="108">EXPORT / RELEASE CHECK</text><text class="text heading" x="953" y="139">Ready to package?</text><text class="muted body" x="953" y="165">A clear validation step before a user downloads the product.</text>
  <rect class="soft" x="953" y="194" width="416" height="76" rx="9"/><circle cx="981" cy="229" r="11" fill="#75d99a"/><text class="text body" x="1006" y="225">Brand source is complete</text><text class="muted small" x="1006" y="248">Name, primary mark, palette, and type are selected.</text>
  <text class="muted label" x="953" y="310">PACKAGE CONTENTS</text>
  <rect class="soft" x="953" y="326" width="416" height="48" rx="7"/><text class="text body" x="974" y="356">✓ Logo files</text><text class="muted small" x="1218" y="356">SVG · PNG · PDF</text>
  <rect class="soft" x="953" y="384" width="416" height="48" rx="7"/><text class="text body" x="974" y="414">✓ Favicon package</text><text class="muted small" x="1218" y="414">manifest included</text>
  <rect class="soft" x="953" y="442" width="416" height="48" rx="7"/><text class="text body" x="974" y="472">! Social starter</text><text class="muted small" x="1218" y="472">1 asset out of date</text>
  <rect class="soft" x="953" y="500" width="416" height="48" rx="7"/><text class="text body" x="974" y="530">○ Brand guide PDF</text><text class="muted small" x="1218" y="530">not selected</text>
  <text class="muted label" x="953" y="590">FOLDER PREVIEW</text><text class="text small" x="974" y="620">/logo</text><text class="text small" x="974" y="643">/favicon</text><text class="text small" x="974" y="666">/social</text><text class="text small" x="974" y="689">manifest.json · README.md</text>
  <rect class="soft" x="953" y="716" width="176" height="45" rx="8"/><text class="text small" x="978" y="744">Review 1 stale asset</text><rect class="accent" x="1141" y="716" width="228" height="45" rx="8"/><text class="text body" x="1183" y="744">Generate ZIP</text>
</svg>