<svg xmlns="http://www.w3.org/2000/svg" width="1440" height="860" viewBox="0 0 1440 860"><style>.b{fill:#f5f3ee}.n{fill:#192029}.p{fill:#fff;stroke:#b9c0c5}.r{stroke:#c6cbd0}.a{fill:#315d7c}.i{fill:#161b21}.t{font-family:Arial,sans-serif;fill:#161b21}.l{font-family:Arial,sans-serif;fill:#f5f3ee}.m{font-family:Arial,sans-serif;fill:#68737c}.h{font:600 17px Arial}.s{font:700 10px Arial;letter-spacing:1px}.x{font:13px Arial}</style><rect class="b" width="1440" height="860"/><text class="t h" x="42" y="40">Professional visual direction — compact, editorial, precise</text><text class="m x" x="42" y="61">Sharper geometry, smaller type, muted ink-blue accent, and hairline separation.</text><rect class="n" x="40" y="86" width="180" height="730"/><text class="l h" x="64" y="123">etymalia</text><text class="l s" x="64" y="145">ALDER &amp; CO. / ID-041</text><line x1="64" y1="166" x2="196" y2="166" stroke="#58626c"/><text class="l s" x="64" y="198">BRAND SYSTEM</text><rect class="a" x="56" y="215" width="148" height="33"/><text class="l x" x="73" y="237">01  Overview</text><text class="l x" x="73" y="285">02  Brief</text><text class="l x" x="73" y="320">03  Name</text><text class="l x" x="73" y="355">04  Identity</text><text class="l x" x="73" y="390">05  Assets</text><text class="l x" x="73" y="425">06  Guide</text><text class="l x" x="73" y="460">07  Export</text><rect fill="#faf9f5" x="220" y="86" width="1180" height="730"/><line class="r" x1="220" y1="140" x2="1400" y2="140"/><text class="m s" x="250" y="118">BRANDS / ALDER &amp; CO. / IDENTITY</text><text class="t h" x="550" y="119">Identity</text><circle fill="#32835c" cx="1125" cy="113" r="4"/><text class="m s" x="1136" y="117">SAVED</text><rect class="i" x="1250" y="100" width="118" height="28"/><text class="l s" x="1281" y="118">EXPORT KIT</text><rect class="p" x="244" y="166" width="242" height="618"/><text class="m s" x="264" y="194">IDENTITY INPUTS</text><text class="t h" x="264" y="225">Alder &amp; Co.</text><text class="m s" x="264" y="245">NAME LOCKED · VERSION 03</text><line class="r" x1="264" y1="263" x2="466" y2="263"/><rect fill="#edf1f2" x="264" y="282" width="202" height="42"/><rect class="a" x="264" y="282" width="3" height="42"/><text class="t x" x="280" y="308">Logo direction</text><text class="m x" x="426" y="308">03</text><text class="t x" x="280" y="358">Color tokens</text><text class="t x" x="280" y="408">Type system</text><text class="t x" x="280" y="458">Voice</text><text class="m s" x="264" y="526">DIRECTIONS</text><text class="t x" x="264" y="555">03 / Quiet geometry</text><line class="r" x1="264" y1="568" x2="466" y2="568"/><text class="m x" x="264" y="596">02 / Coastal ledger</text><line class="r" x1="264" y1="609" x2="466" y2="609"/><text class="m x" x="264" y="637">01 / Modern archive</text><rect class="i" x="264" y="715" width="202" height="36"/><text class="l s" x="326" y="738">EDIT DIRECTION</text><text class="m s" x="516" y="194">SELECTED DIRECTION / 03</text><text class="t h" x="516" y="225">Quiet geometry</text><text class="m s" x="516" y="245">PRIMARY MARK · HORIZONTAL LOCKUP</text><rect class="p" x="516" y="266" width="514" height="278"/><circle cx="773" cy="380" r="76" fill="none" stroke="#1c2832" stroke-width="10"/><path d="M737 420l36-111 36 111" fill="none" stroke="#1c2832" stroke-width="10"/><text class="t" font-family="Georgia" font-size="25" letter-spacing="3" x="654" y="480">ALDER &amp; CO.</text><line class="r" x1="540" y1="507" x2="1006" y2="507"/><text class="m s" x="540" y="528">SVG MASTER · VECTOR VALIDATED · SOURCE: IDENTITY/03</text><text class="m s" x="516" y="580">APPLIED PREVIEWS</text><rect class="p" x="516" y="598" width="156" height="142"/><text class="m s" x="530" y="619">WEB HEADER</text><rect fill="#1c2832" x="530" y="634" width="128" height="65"/><rect fill="#d8a550" x="544" y="648" width="58" height="6"/><rect class="p" x="687" y="598" width="156" height="142"/><text class="m s" x="701" y="619">SOCIAL AVATAR</text><rect class="a" x="713" y="636" width="104" height="75"/><circle cx="765" cy="674" r="27" fill="none" stroke="#f5f3ee" stroke-width="4"/><rect class="p" x="858" y="598" width="172" height="142"/><text class="m s" x="872" y="619">BUSINESS CARD</text><rect fill="#f2efe8" x="872" y="634" width="144" height="77" stroke="#1c2832"/><text class="t" font-family="Georgia" font-size="11" x="884" y="663">ALDER &amp; CO.</text><rect class="p" x="1054" y="166" width="314" height="618"/><text class="m s" x="1074" y="194">DIRECTION CONTROLS</text><text class="t h" x="1074" y="225">Refine variation</text><text class="m s" x="1074" y="245">NEXT RUN ONLY</text><text class="t s" x="1074" y="288">VISUAL TONE</text><rect fill="#315d7c" x="1074" y="302" width="92" height="30"/><text class="l s" x="1091" y="321">EDITORIAL</text><rect class="p" x="1174" y="302" width="72" height="30"/><text class="m s" x="1191" y="321">QUIET</text><text class="t s" x="1074" y="377">COLOR BEHAVIOR</text><rect class="p" x="1074" y="391" width="274" height="38"/><text class="t x" x="1088" y="415">Keep current palette</text><text class="t s" x="1074" y="472">ADVANCED INSTRUCTION</text><rect class="p" x="1074" y="486" width="274" height="104"/><text class="m x" x="1088" y="515">Calm, architectural monogram.</text><text class="m x" x="1088" y="537">Preserve optical balance and</text><text class="m x" x="1088" y="559">single-color legibility.</text><rect class="a" x="1074" y="706" width="274" height="44"/><text class="l s" x="1140" y="733">GENERATE VARIATIONS</text><text class="m s" x="516" y="770">TOKEN EDITS UPDATE LIVE PREVIEWS · EXPORTED DERIVATIVES SHOW STALENESS UNTIL REGENERATED</text></svg>